<svg xmlns="http://www.w3.org/2000/svg" viewBox="0 0 980 760" role="img" aria-label="Mockup do guia MOFO ZERO com capa, paginas, celular e bonus">
  <defs>
    <filter id="drop" x="-20%" y="-20%" width="140%" height="150%">
      <feDropShadow dx="0" dy="22" stdDeviation="22" flood-color="#000000" flood-opacity=".28"/>
    </filter>
    <filter id="soft" x="-20%" y="-20%" width="140%" height="140%">
      <feDropShadow dx="0" dy="12" stdDeviation="14" flood-color="#000000" flood-opacity=".18"/>
    </filter>
  </defs>

  <rect width="980" height="760" fill="#3a1b09"/>

  <g filter="url(#soft)" opacity=".96">
    <rect x="148" y="104" width="248" height="180" rx="8" fill="#fff8eb" transform="rotate(-14 148 104)"/>
    <rect x="176" y="126" width="72" height="16" rx="8" fill="#ee6352" transform="rotate(-14 176 126)"/>
    <rect x="176" y="166" width="152" height="12" rx="6" fill="#e6dccb" transform="rotate(-14 176 166)"/>
    <rect x="176" y="196" width="126" height="12" rx="6" fill="#e6dccb" transform="rotate(-14 176 196)"/>
  </g>

  <g filter="url(#soft)" opacity=".96">
    <rect x="582" y="86" width="260" height="192" rx="8" fill="#fff8eb" transform="rotate(11 582 86)"/>
    <rect x="612" y="118" width="74" height="16" rx="8" fill="#39b574" transform="rotate(11 612 118)"/>
    <rect x="612" y="160" width="168" height="12" rx="6" fill="#e6dccb" transform="rotate(11 612 160)"/>
    <rect x="612" y="190" width="132" height="12" rx="6" fill="#e6dccb" transform="rotate(11 612 190)"/>
  </g>

  <g filter="url(#drop)">
    <rect x="337" y="96" width="330" height="430" rx="14" fill="#fff8eb"/>
    <rect x="337" y="96" width="330" height="116" rx="14" fill="#ee6352"/>
    <rect x="337" y="188" width="330" height="24" fill="#ee6352"/>
    <text x="371" y="154" fill="#ffffff" font-family="Inter, Arial, sans-serif" font-size="26" font-weight="900">GUIA VISUAL</text>
    <text x="371" y="260" fill="#3a1b09" font-family="Inter, Arial, sans-serif" font-size="56" font-weight="950">MOFO</text>
    <text x="371" y="320" fill="#3a1b09" font-family="Inter, Arial, sans-serif" font-size="56" font-weight="950">ZERO</text>
    <text x="371" y="366" fill="#363636" font-family="Inter, Arial, sans-serif" font-size="22" font-weight="800">O que fazer primeiro</text>
    <rect x="371" y="400" width="228" height="18" rx="9" fill="#e6dccb"/>
    <rect x="371" y="432" width="188" height="18" rx="9" fill="#e6dccb"/>
    <rect x="371" y="468" width="236" height="42" rx="8" fill="#39b574"/>
    <text x="406" y="496" fill="#ffffff" font-family="Inter, Arial, sans-serif" font-size="18" font-weight="900">ACESSO IMEDIATO</text>
  </g>

  <g filter="url(#drop)">
    <rect x="118" y="314" width="152" height="276" rx="26" fill="#151515"/>
    <rect x="132" y="338" width="124" height="224" rx="12" fill="#fff8eb"/>
    <text x="148" y="382" fill="#3a1b09" font-family="Inter, Arial, sans-serif" font-size="24" font-weight="950">MOFO</text>
    <text x="148" y="410" fill="#3a1b09" font-family="Inter, Arial, sans-serif" font-size="24" font-weight="950">ZERO</text>
    <rect x="148" y="436" width="78" height="10" rx="5" fill="#e6dccb"/>
    <rect x="148" y="462" width="88" height="10" rx="5" fill="#e6dccb"/>
    <rect x="148" y="502" width="76" height="30" rx="8" fill="#39b574"/>
    <text x="161" y="523" fill="#ffffff" font-family="Inter, Arial, sans-serif" font-size="13" font-weight="900">DENTRO</text>
  </g>

  <g filter="url(#drop)">
    <rect x="674" y="258" width="218" height="318" rx="10" fill="#ffffff" transform="rotate(6 674 258)"/>
    <rect x="700" y="292" width="104" height="30" rx="8" fill="#f6dfb9" transform="rotate(6 700 292)"/>
    <text x="714" y="314" fill="#3a1b09" font-family="Inter, Arial, sans-serif" font-size="15" font-weight="900" transform="rotate(6 714 314)">POR DENTRO</text>
    <text x="698" y="372" fill="#3a1b09" font-family="Inter, Arial, sans-serif" font-size="34" font-weight="950" transform="rotate(6 698 372)">Tabela por</text>
    <text x="698" y="410" fill="#3a1b09" font-family="Inter, Arial, sans-serif" font-size="34" font-weight="950" transform="rotate(6 698 410)">material</text>
    <rect x="700" y="440" width="146" height="14" rx="7" fill="#e6dccb" transform="rotate(6 700 440)"/>
    <rect x="700" y="470" width="116" height="14" rx="7" fill="#e6dccb" transform="rotate(6 700 470)"/>
  </g>

  <g filter="url(#soft)">
    <rect x="284" y="64" width="216" height="52" rx="26" fill="#d7ff24"/>
    <text x="318" y="98" fill="#3a1b09" font-family="Inter, Arial, sans-serif" font-size="21" font-weight="950">MAIS ESCOLHIDO</text>
  </g>

  <g filter="url(#soft)">
    <rect x="214" y="128" width="220" height="52" rx="26" fill="#ee6352"/>
    <text x="250" y="162" fill="#ffffff" font-family="Inter, Arial, sans-serif" font-size="20" font-weight="950">ACESSO IMEDIATO</text>
  </g>

  <g filter="url(#soft)">
    <circle cx="724" cy="150" r="52" fill="#d7ff24"/>
    <circle cx="724" cy="150" r="42" fill="#3a1b09"/>
    <text x="704" y="142" fill="#f6dfb9" font-family="Inter, Arial, sans-serif" font-size="16" font-weight="900">7 DIAS</text>
    <text x="696" y="166" fill="#ffffff" font-family="Inter, Arial, sans-serif" font-size="13" font-weight="900">GARANTIA</text>
  </g>

  <g filter="url(#drop)">
    <rect x="92" y="614" width="132" height="88" rx="8" fill="#fff8eb"/>
    <rect x="108" y="632" width="58" height="12" rx="6" fill="#ee6352"/>
    <text x="108" y="672" fill="#3a1b09" font-family="Inter, Arial, sans-serif" font-size="17" font-weight="900">Checklist</text>
  </g>
  <g filter="url(#drop)">
    <rect x="244" y="614" width="132" height="88" rx="8" fill="#fff8eb"/>
    <rect x="260" y="632" width="58" height="12" rx="6" fill="#39b574"/>
    <text x="260" y="672" fill="#3a1b09" font-family="Inter, Arial, sans-serif" font-size="17" font-weight="900">Roupas</text>
  </g>
  <g filter="url(#drop)">
    <rect x="396" y="614" width="132" height="88" rx="8" fill="#fff8eb"/>
    <rect x="412" y="632" width="58" height="12" rx="6" fill="#ee6352"/>
    <text x="412" y="672" fill="#3a1b09" font-family="Inter, Arial, sans-serif" font-size="17" font-weight="900">Sapatos</text>
  </g>
  <g filter="url(#drop)">
    <rect x="548" y="614" width="132" height="88" rx="8" fill="#fff8eb"/>
    <rect x="564" y="632" width="58" height="12" rx="6" fill="#39b574"/>
    <text x="564" y="672" fill="#3a1b09" font-family="Inter, Arial, sans-serif" font-size="17" font-weight="900">Armários</text>
  </g>
  <g filter="url(#drop)">
    <rect x="700" y="614" width="132" height="88" rx="8" fill="#fff8eb"/>
    <rect x="716" y="632" width="58" height="12" rx="6" fill="#ee6352"/>
    <text x="716" y="672" fill="#3a1b09" font-family="Inter, Arial, sans-serif" font-size="17" font-weight="900">Ambientes</text>
  </g>

  <text x="280" y="738" fill="#ffffff" font-family="Inter, Arial, sans-serif" font-size="24" font-weight="900">Guia de consulta rápida para agir com mais segurança</text>
</svg>
